<?xml version="1.0" ?>
<!-- Uploaded to: SVG Repo, www.svgrepo.com, Generator: SVG Repo Mixer Tools -->
<svg width="800px" height="800px" viewBox="0 0 24 24" enable-background="new 0 0 24 24" id="Layer_1" version="1.1" xml:space="preserve" xmlns="http://www.w3.org/2000/svg" xmlns:xlink="http://www.w3.org/1999/xlink">
<g>
<path d="M20.8535156,9.1464844l-2.5-2.5c-0.1953125-0.1953125-0.5117188-0.1953125-0.7070312,0   s-0.1953125,0.5117188,0,0.7070312l0.1821289,0.1821289l-3.7802734,3.7802734   C13.4101562,10.8564453,12.7241211,10.5151367,12,10.2973633V1h0.5C12.7763672,1,13,0.7763672,13,0.5S12.7763672,0,12.5,0h-5   C7.2236328,0,7,0.2236328,7,0.5S7.2236328,1,7.5,1H8v9.2963867C5.0366211,11.1748047,3,13.8764648,3,17   c0,2.5569458,1.3823242,4.7915039,3.4346313,6.0131836C6.1906738,23.0464478,6,23.2468262,6,23.5C6,23.7763672,6.2236328,24,6.5,24   h7c0.2763672,0,0.5-0.2236328,0.5-0.5c0-0.2531738-0.1906738-0.4535522-0.4346313-0.4868164   C15.6176758,21.7915039,17,19.5569458,17,17c0-1.1962891-0.3193359-2.3769531-0.9267578-3.4379883l3.8911133-3.890625   l0.1821289,0.1821289C20.2441406,9.9511719,20.3720703,10,20.5,10s0.2558594-0.0488281,0.3535156-0.1464844   C21.0488281,9.6582031,21.0488281,9.3417969,20.8535156,9.1464844z" fill="#303C42"/>
<path d="M15.0883789,13.1328125c-0.1669922,0.1669922-0.1943359,0.4277344-0.065918,0.6254883   C15.6621094,14.7441406,16,15.8647461,16,17c0,3.3085938-2.6914062,6-6,6s-6-2.6914062-6-6   c0-2.7910156,1.8979492-5.1894531,4.6152344-5.8330078C8.8408203,11.1137695,9,10.9125977,9,10.6806641V1h2v9.6806641   c0,0.2319336,0.1591797,0.4331055,0.3847656,0.4863281c0.8588867,0.2036133,1.6635742,0.6069336,2.3920898,1.199707   c0.0922852,0.0751953,0.2041016,0.1123047,0.3154297,0.1123047c0.128418,0,0.2563477-0.0493164,0.3535156-0.1464844   l4.0898438-4.0898438l0.7216797,0.7216797L15.0883789,13.1328125z" fill="#85BACE"/>
<path d="M15.5,15c0,3.3085938-2.6914062,6-6,6c-2.4406738,0-4.5415649-1.4667969-5.4779053-3.5632935   C4.2473145,20.5414429,6.8388062,23,10,23c3.3085938,0,6-2.6914062,6-6c0-0.8291016-0.1844482-1.6491089-0.5308228-2.4157715   C15.4793091,14.7229004,15.5,14.8606567,15.5,15z" opacity="0.1"/>
<linearGradient gradientUnits="userSpaceOnUse" id="SVGID_1_" x1="2.9991274" x2="18.1674156" y1="8.9685936" y2="16.0416813">
<stop offset="0" style="stop-color:#FFFFFF;stop-opacity:0.2"/>
<stop offset="1" style="stop-color:#FFFFFF;stop-opacity:0"/>
</linearGradient>
<path d="M20.8535156,9.1464844l-2.5-2.5c-0.1953125-0.1953125-0.5117188-0.1953125-0.7070312,0   s-0.1953125,0.5117188,0,0.7070312l0.1821289,0.1821289l-3.7802734,3.7802734   C13.4101562,10.8564453,12.7241211,10.5151367,12,10.2973633V1h0.5C12.7763672,1,13,0.7763672,13,0.5S12.7763672,0,12.5,0h-5   C7.2236328,0,7,0.2236328,7,0.5S7.2236328,1,7.5,1H8v9.2963867C5.0366211,11.1748047,3,13.8764648,3,17   c0,2.5569458,1.3823242,4.7915039,3.4346313,6.0131836C6.1906738,23.0464478,6,23.2468262,6,23.5C6,23.7763672,6.2236328,24,6.5,24   h7c0.2763672,0,0.5-0.2236328,0.5-0.5c0-0.2531738-0.1906738-0.4535522-0.4346313-0.4868164   C15.6176758,21.7915039,17,19.5569458,17,17c0-1.1962891-0.3193359-2.3769531-0.9267578-3.4379883l3.8911133-3.890625   l0.1821289,0.1821289C20.2441406,9.9511719,20.3720703,10,20.5,10s0.2558594-0.0488281,0.3535156-0.1464844   C21.0488281,9.6582031,21.0488281,9.3417969,20.8535156,9.1464844z" fill="url(#SVGID_1_)"/>
</g>
<g/>
<g/>
<g/>
<g/>
<g/>
<g/>
<g/>
<g/>
<g/>
<g/>
<g/>
<g/>
<g/>
<g/>
<g/>
</svg>